<svg xmlns="http://www.w3.org/2000/svg" width="9000" height="823" viewBox="0 0 9000 823">
  <defs>
    <style>
      .cls-1, .cls-2, .cls-3 {
        fill: #fff;
        fill-rule: evenodd;
      }

      .cls-1 {
        fill-opacity: 0.1;
      }

      .cls-2 {
        opacity: 0.4;
      }
    </style>
  </defs>
  <path class="cls-1" d="M694.381,111C2007.07,111,3071.21,762.2,3071.21,1565.5S2007.07,3020,694.381,3020-1682.44,2368.8-1682.44,1565.5-618.3,111,694.381,111Z"/>
  <path id="Ellipse_1_copy" data-name="Ellipse 1 copy" class="cls-1" d="M7226.54,238.586c1510.71-462,2964.56-87.094,3247.26,837.384,282.8,924.48-712.72,2048.45-2223.43,2510.46s-2964.58,87.09-3247.3-837.39S5715.83,700.591,7226.54,238.586Z"/>
  <path id="Rectangle_1_copy" data-name="Rectangle 1 copy" class="cls-2" d="M-1916.56,499.506S-797.869,263.6,429.245,355.545c810.045,60.7,1540.925,198.693,2486.775,221.809,891.61,21.79,1773.13,9.262,2511.11-13.7,1114.58-34.68,1971.73-64.613,1971.73-64.613l-79.9,803.21-9242.41-225.88Z"/>
  <path id="Rectangle_1_copy_2" data-name="Rectangle 1 copy 2" class="cls-2" d="M3478.94,529.735S4594.97,269.271,5822.93,334.24c810.6,42.887,1542.87,164.805,2488.87,167.132,891.73,2.194,1773-29.705,2510.7-68.883,1114-59.171,1970.8-107.936,1970.8-107.936L12722,1129.43l-9243.75-22.74Z"/>
  <path id="Rectangle_1_copy_4" data-name="Rectangle 1 copy 4" class="cls-2" d="M7477.38,509.609s1116.03-260.464,2343.99-195.5C10632,357,11364.2,478.919,12310.2,481.246c891.8,2.194,1773-29.7,2510.7-68.883,1114.1-59.171,1970.8-107.937,1970.8-107.937l-71.3,804.874-9243.71-22.74Z"/>
  <path id="Rectangle_1_copy_3" data-name="Rectangle 1 copy 3" class="cls-2" d="M1590.97,518.355S2840.86,312.822,4038.3,418.336c747.81,65.9,1321.52,182.33,2021.66,205.074,634.01,20.6,1175.73,13.11,1586.62.238,621.02-19.453,1016.11-33.906,1016.11-33.906l80.92,516.578-7149.57-1.62Z"/>
  <path class="cls-3" d="M-65.625,576.191S1050.09,312.981,2278.13,374.929c810.64,40.893,1543.06,161.009,2489.06,161.009,891.73,0,1772.97-34.067,2510.57-75.059,1114.01-61.912,1914.43-12.154,1914.43-12.154l-14.07,704.415H-65.625V576.191Z"/>
</svg>
